<svg width="100%" height="100%" viewBox="0 0 636 601" version="1.1" xmlns="http://www.w3.org/2000/svg" xmlns:xlink="http://www.w3.org/1999/xlink" xml:space="preserve" xmlns:serif="http://www.serif.com/">
    <g transform="matrix(1,0,0,1,0.00984942,-0.0010185)">
        <g transform="matrix(1,0,0,1,-165.012,-260)">
             <style>
                path {
                    fill: #121212;
                }
                @media (prefers-color-scheme: dark) {
                    path {
                        fill: #ffffff;
                    }
                }
            </style>
            <path d="M299.992,260L500,260C665.685,260 800,394.315 800,560C800,725.685 665.685,860 500,860L300,860L296.853,859.949C264.446,858.905 234.597,841.784 217.359,814.165C199.564,785.655 197.722,749.985 212.485,719.793C217.461,709.619 222.518,699.277 227.455,689.181C242.765,657.871 231.646,620.053 201.826,602.012L182.137,590.1C179.789,588.711 177.589,587.037 175.592,585.094L174.906,584.408C172.696,582.137 170.836,579.604 169.345,576.889C166.412,571.575 165.008,565.798 165.001,560.087L165.001,559.913C165.007,554.202 166.412,548.425 169.345,543.111C170.835,540.397 172.696,537.863 174.906,535.592L175.592,534.906C177.59,532.962 179.791,531.288 182.137,529.9L201.826,517.988C231.646,499.947 242.765,462.129 227.455,430.819C222.518,420.723 217.461,410.381 212.485,400.207C197.722,370.015 199.564,334.345 217.359,305.835C235.154,277.324 266.389,260 299.992,260ZM489.391,789.86C512.705,766.954 529.199,735.437 538.024,703.99C545.754,676.443 551.525,647.573 549.72,619.29C549.017,608.274 539.503,599.901 528.487,600.604C517.471,601.307 509.098,610.821 509.801,621.837C511.322,645.681 506.029,669.959 499.512,693.182C492.233,719.118 478.745,745.35 459,763.573C451.52,770.477 450.506,781.782 456.263,789.86L456.665,790.404L457.033,790.871L457.473,791.394L457.868,791.835C461.786,796.081 467.123,798.243 472.484,798.266L472.724,798.266C477.523,798.23 482.327,796.477 486.129,792.967L486.796,792.348L487.328,791.848L488.318,790.904L488.988,790.255L489.391,789.86ZM572.391,676.316C572.247,692.814 570.416,712.157 560.28,725.716C553.672,734.558 555.485,747.101 564.326,753.71C573.167,760.318 585.711,758.506 592.319,749.664C607.405,729.482 612.175,701.223 612.389,676.666C612.486,665.628 603.603,656.588 592.565,656.492C581.527,656.395 572.487,665.278 572.391,676.316ZM438.569,658.848C436.605,676.432 432.472,696.844 420.173,710.197C412.694,718.316 413.214,730.979 421.333,738.457C429.452,745.936 442.115,745.416 449.594,737.297C467.495,717.862 475.463,688.882 478.322,663.288C479.547,652.318 471.635,642.417 460.665,641.192C449.695,639.967 439.794,647.878 438.569,658.848ZM722.193,619.094C727.196,600.23 729.86,580.426 729.86,560C729.86,433.052 626.948,330.14 500,330.14L300,330.14L298.232,330.196C289.455,330.761 281.436,335.377 276.741,342.899C271.733,350.922 271.215,360.96 275.37,369.457C280.345,379.631 285.402,389.972 290.339,400.069C317.154,454.905 304.225,519.528 261.532,560C288.313,585.388 303.382,620.28 304.275,656.305C305.705,655.882 307.123,655.437 308.524,654.958C321.965,650.364 333.968,643.625 345.652,635.633C381.966,610.792 418.664,584.61 461.108,571.156C557.088,540.734 640.353,574.576 722.193,619.094ZM611.907,435.676C639.503,435.676 661.907,458.08 661.907,485.676C661.907,513.272 639.503,535.676 611.907,535.676C584.311,535.676 561.907,513.272 561.907,485.676C561.907,458.08 584.311,435.676 611.907,435.676Z"/>
        </g>
    </g>
</svg>
