<svg width="19" height="22" viewBox="0 0 19 22" fill="none">
<path d="M17.3411 3.90268C17.2599 3.7949 17.1731 3.69142 17.0811 3.59268C17.1737 3.34612 17.244 3.09177 17.2911 2.83268C17.4305 1.88487 17.3095 0.917022 16.9411 0.0326789C16.9411 0.0326789 15.8211 -0.317321 13.2511 1.41268C12.1601 1.11141 11.0331 0.960025 9.90114 0.962679C8.76599 0.960692 7.63577 1.11206 6.54114 1.41268C3.97114 -0.337321 2.85114 0.0326789 2.85114 0.0326789C2.48724 0.907669 2.36632 1.86467 2.50114 2.80268C2.5486 3.07254 2.62228 3.33713 2.72114 3.59268C2.63114 3.69268 2.54114 3.80268 2.46114 3.90268C1.71491 4.83869 1.31879 6.00582 1.34114 7.20268C1.33877 7.48653 1.35212 7.7703 1.38114 8.05268C1.70108 12.4827 4.65114 13.5127 7.46114 13.8327C7.0634 14.2025 6.79372 14.6893 6.69114 15.2227C6.5982 15.5784 6.55446 15.9451 6.56114 16.3127V17.6222C5.44292 17.7216 4.29466 17.5589 3.93895 16.5609C3.55655 15.6059 2.92261 14.7724 2.10448 14.1488C2.04503 14.1163 1.98848 14.0787 1.93548 14.0365C1.86364 13.8475 1.73629 13.6847 1.57018 13.5695C1.40407 13.4543 1.20698 13.3921 1.00482 13.391H1.00001C0.735613 13.3909 0.481942 13.4956 0.294526 13.6821C0.107109 13.8686 0.00121212 14.1217 1.39822e-05 14.3861C-0.00388602 15.1986 0.809104 15.723 1.14259 15.9017C1.53152 16.2936 1.84443 16.7542 2.06544 17.2601C2.4297 18.2836 3.49464 19.8382 6.53126 19.6361C6.53226 19.6713 6.53326 19.7045 6.53371 19.7348L6.5381 20.0023C6.53807 20.1337 6.56391 20.2637 6.61415 20.3851C6.6644 20.5064 6.73806 20.6167 6.83092 20.7095C6.92379 20.8024 7.03404 20.876 7.15538 20.9263C7.27672 20.9765 7.40677 21.0024 7.5381 21.0023L7.54121 21.0017V21.0024H12.2523C12.3837 21.0024 12.5137 20.9766 12.6351 20.9263C12.7564 20.8761 12.8667 20.8024 12.9595 20.7096C13.0524 20.6167 13.126 20.5064 13.1763 20.3851C13.2265 20.2638 13.2524 20.1337 13.2523 20.0024C13.2523 20.0024 13.2597 16.8427 13.2597 16.3127C13.2663 15.9452 13.2226 15.5784 13.1297 15.2227L13.1278 15.2166L13.1312 15.2227C13.1226 15.1877 13.1095 15.1592 13.1001 15.1253C12.9884 14.6299 12.7304 14.1795 12.3596 13.8327L12.3712 13.8535C12.3644 13.8474 12.358 13.8386 12.3511 13.8327C15.1611 13.5127 18.0911 12.4627 18.4111 8.05267C18.4401 7.77029 18.4535 7.48652 18.4511 7.20267C18.4688 6.00819 18.0771 4.84365 17.3411 3.90268Z" fill="currentColor"/>
</svg>
